<svg width="221" height="90" viewBox="0 0 221 90" fill="none" xmlns="http://www.w3.org/2000/svg">
<path d="M114.712 60.1998C112.262 60.1998 110.026 59.6314 108.005 58.4946C105.984 57.3325 104.379 55.7283 103.192 53.6819C102.03 51.6104 101.449 49.2861 101.449 46.7093C101.449 44.1325 102.03 41.8209 103.192 39.7746C104.379 37.703 105.984 36.0988 108.005 34.9619C110.026 33.7998 112.262 33.2188 114.712 33.2188C117.188 33.2188 119.436 33.7998 121.457 34.9619C123.478 36.0988 125.07 37.6904 126.232 39.7367C127.394 41.783 127.975 44.1072 127.975 46.7093C127.975 49.3114 127.394 51.6356 126.232 53.6819C125.07 55.7283 123.478 57.3325 121.457 58.4946C119.436 59.6314 117.188 60.1998 114.712 60.1998ZM114.712 57.2061C116.556 57.2061 118.211 56.7767 119.676 55.9177C121.167 55.0588 122.329 53.8335 123.163 52.2419C124.022 50.6504 124.451 48.8061 124.451 46.7093C124.451 44.5872 124.022 42.743 123.163 41.1767C122.329 39.5851 121.179 38.3598 119.714 37.5009C118.249 36.6419 116.582 36.2125 114.712 36.2125C112.843 36.2125 111.175 36.6419 109.71 37.5009C108.245 38.3598 107.083 39.5851 106.224 41.1767C105.39 42.743 104.973 44.5872 104.973 46.7093C104.973 48.8061 105.39 50.6504 106.224 52.2419C107.083 53.8335 108.245 55.0588 109.71 55.9177C111.2 56.7767 112.868 57.2061 114.712 57.2061ZM139.879 60.2756C138.288 60.2756 136.86 60.0104 135.597 59.4798C134.334 58.924 133.336 58.1661 132.603 57.2061C131.871 56.2209 131.467 55.0967 131.391 53.8335H134.953C135.054 54.8693 135.534 55.7156 136.393 56.3725C137.277 57.0293 138.427 57.3577 139.841 57.3577C141.155 57.3577 142.191 57.0672 142.949 56.4861C143.707 55.9051 144.086 55.1725 144.086 54.2883C144.086 53.3788 143.681 52.7093 142.873 52.2798C142.064 51.8251 140.814 51.383 139.121 50.9535C137.58 50.5493 136.317 50.1451 135.332 49.7409C134.372 49.3114 133.538 48.6925 132.831 47.884C132.149 47.0504 131.808 45.964 131.808 44.6251C131.808 43.564 132.123 42.5914 132.755 41.7072C133.387 40.823 134.283 40.1283 135.446 39.623C136.608 39.0925 137.934 38.8272 139.424 38.8272C141.723 38.8272 143.58 39.4083 144.995 40.5704C146.41 41.7325 147.168 43.324 147.269 45.3451H143.82C143.744 44.2588 143.302 43.3872 142.494 42.7304C141.711 42.0735 140.65 41.7451 139.311 41.7451C138.073 41.7451 137.088 42.0104 136.355 42.5409C135.622 43.0714 135.256 43.7661 135.256 44.6251C135.256 45.3072 135.471 45.8756 135.9 46.3304C136.355 46.7598 136.911 47.1135 137.568 47.3914C138.25 47.644 139.184 47.9346 140.372 48.263C141.862 48.6672 143.075 49.0714 144.01 49.4756C144.944 49.8546 145.74 50.4356 146.397 51.2188C147.079 52.0019 147.433 53.0251 147.458 54.2883C147.458 55.4251 147.142 56.4483 146.511 57.3577C145.879 58.2672 144.982 58.9872 143.82 59.5177C142.683 60.023 141.37 60.2756 139.879 60.2756ZM151.038 49.4756C151.038 47.3535 151.467 45.4967 152.326 43.9051C153.185 42.2883 154.36 41.0377 155.85 40.1535C157.366 39.2693 159.046 38.8272 160.89 38.8272C162.709 38.8272 164.288 39.2188 165.627 40.0019C166.966 40.7851 167.964 41.7704 168.621 42.9577V39.1683H172.107V59.9346H168.621V56.0693C167.939 57.2819 166.916 58.2925 165.551 59.1009C164.212 59.884 162.646 60.2756 160.852 60.2756C159.008 60.2756 157.341 59.8209 155.85 58.9114C154.36 58.0019 153.185 56.7261 152.326 55.084C151.467 53.4419 151.038 51.5725 151.038 49.4756ZM168.621 49.5135C168.621 47.9472 168.305 46.583 167.674 45.4209C167.042 44.2588 166.183 43.3746 165.097 42.7683C164.036 42.1367 162.861 41.8209 161.572 41.8209C160.284 41.8209 159.109 42.124 158.048 42.7304C156.987 43.3367 156.141 44.2209 155.509 45.383C154.878 46.5451 154.562 47.9093 154.562 49.4756C154.562 51.0672 154.878 52.4567 155.509 53.644C156.141 54.8061 156.987 55.703 158.048 56.3346C159.109 56.9409 160.284 57.244 161.572 57.244C162.861 57.244 164.036 56.9409 165.097 56.3346C166.183 55.703 167.042 54.8061 167.674 53.644C168.305 52.4567 168.621 51.0798 168.621 49.5135ZM189.531 59.9346L181.383 50.764V59.9346H177.935V31.8925H181.383V48.3767L189.379 39.1683H194.192L184.415 49.5135L194.229 59.9346H189.531ZM196.149 49.4756C196.149 47.3535 196.578 45.4967 197.437 43.9051C198.296 42.2883 199.471 41.0377 200.961 40.1535C202.477 39.2693 204.157 38.8272 206.001 38.8272C207.82 38.8272 209.399 39.2188 210.738 40.0019C212.077 40.7851 213.075 41.7704 213.732 42.9577V39.1683H217.218V59.9346H213.732V56.0693C213.05 57.2819 212.027 58.2925 210.662 59.1009C209.323 59.884 207.757 60.2756 205.963 60.2756C204.119 60.2756 202.452 59.8209 200.961 58.9114C199.471 58.0019 198.296 56.7261 197.437 55.084C196.578 53.4419 196.149 51.5725 196.149 49.4756ZM213.732 49.5135C213.732 47.9472 213.416 46.583 212.785 45.4209C212.153 44.2588 211.294 43.3746 210.208 42.7683C209.147 42.1367 207.972 41.8209 206.683 41.8209C205.395 41.8209 204.22 42.124 203.159 42.7304C202.098 43.3367 201.252 44.2209 200.62 45.383C199.989 46.5451 199.673 47.9093 199.673 49.4756C199.673 51.0672 199.989 52.4567 200.62 53.644C201.252 54.8061 202.098 55.703 203.159 56.3346C204.22 56.9409 205.395 57.244 206.683 57.244C207.972 57.244 209.147 56.9409 210.208 56.3346C211.294 55.703 212.153 54.8061 212.785 53.644C213.416 52.4567 213.732 51.0798 213.732 49.5135Z" fill="white"/>
<path d="M43.9275 23.1692C44.2843 23.1517 44.6419 23.1429 45 23.1429C45.3581 23.1429 45.7157 23.1517 46.0725 23.1692L47.208 0.0542021C46.4734 0.0181103 45.7371 0 45 0C44.2629 0 43.5267 0.0181103 42.792 0.0542021L43.9275 23.1692Z" fill="white"/>
<path d="M39.6891 23.7979C40.3831 23.6241 41.0852 23.4844 41.7929 23.3794L38.3971 0.487057C36.9402 0.703178 35.4947 0.990703 34.0659 1.34859L39.6891 23.7979Z" fill="white"/>
<path d="M48.2071 23.3794C48.9148 23.4844 49.6169 23.6241 50.3109 23.7979L55.9341 1.34859C54.5053 0.990706 53.0599 0.70318 51.6029 0.487059L48.2071 23.3794Z" fill="white"/>
<path d="M36.6356 24.8066C36.9664 24.6696 37.3002 24.5409 37.6366 24.4205L29.8399 2.63052C29.1474 2.87833 28.4603 3.14334 27.7792 3.42542C27.0982 3.7075 26.425 4.00598 25.76 4.32047L35.6549 25.2414C35.9778 25.0886 36.3048 24.9437 36.6356 24.8066Z" fill="white"/>
<path d="M52.3634 24.4205C52.6998 24.5409 53.0336 24.6696 53.3644 24.8066C53.6952 24.9437 54.0222 25.0886 54.3451 25.2414L64.24 4.32048C63.575 4.00598 62.9018 3.70751 62.2208 3.42542C61.5398 3.14334 60.8526 2.87833 60.1601 2.63052L52.3634 24.4205Z" fill="white"/>
<path d="M31.9797 27.4442C32.5543 27.018 33.1496 26.6203 33.7632 26.2525L21.8654 6.40221C20.602 7.15944 19.3766 7.97824 18.1935 8.85565L31.9797 27.4442Z" fill="white"/>
<path d="M56.2368 26.2525C56.8504 26.6203 57.4457 27.018 58.0203 27.4442L71.8065 8.85566C70.6234 7.97825 69.398 7.15945 68.1346 6.40222L56.2368 26.2525Z" fill="white"/>
<path d="M29.5447 29.5447C29.7978 29.2915 30.0569 29.0448 30.3216 28.8049L14.7798 11.6572C14.2348 12.1512 13.7014 12.659 13.1802 13.1802C12.659 13.7014 12.1512 14.2348 11.6572 14.7798L28.8049 30.3216C29.0448 30.0569 29.2915 29.7978 29.5447 29.5447Z" fill="white"/>
<path d="M59.6784 28.8049C59.9431 29.0448 60.2022 29.2915 60.4553 29.5447C60.7085 29.7978 60.9552 30.0569 61.1951 30.3217L78.3428 14.7798C77.8488 14.2348 77.341 13.7014 76.8198 13.1802C76.2986 12.659 75.7652 12.1512 75.2202 11.6572L59.6784 28.8049Z" fill="white"/>
<path d="M26.2525 33.7632C26.6203 33.1496 27.018 32.5543 27.4442 31.9797L8.85566 18.1935C7.97825 19.3766 7.15945 20.602 6.40222 21.8654L26.2525 33.7632Z" fill="white"/>
<path d="M62.5558 31.9797C62.982 32.5543 63.3797 33.1496 63.7475 33.7632L83.5978 21.8654C82.8406 20.602 82.0218 19.3766 81.1443 18.1935L62.5558 31.9797Z" fill="white"/>
<path d="M24.8066 36.6356C24.9437 36.3048 25.0886 35.9778 25.2414 35.6549L4.32048 25.76C4.00598 26.425 3.7075 27.0982 3.42542 27.7792C3.14334 28.4602 2.87833 29.1474 2.63052 29.8399L24.4205 37.6366C24.5409 37.3002 24.6696 36.9664 24.8066 36.6356Z" fill="white"/>
<path d="M64.7586 35.6549C64.9114 35.9778 65.0564 36.3048 65.1934 36.6356C65.3304 36.9664 65.4591 37.3002 65.5795 37.6366L87.3695 29.84C87.1217 29.1474 86.8567 28.4603 86.5746 27.7793C86.2925 27.0982 85.994 26.425 85.6795 25.76L64.7586 35.6549Z" fill="white"/>
<path d="M23.3794 41.7929C23.4844 41.0852 23.6241 40.3831 23.7979 39.6891L1.34859 34.0659C0.990706 35.4947 0.70318 36.9401 0.487058 38.3971L23.3794 41.7929Z" fill="white"/>
<path d="M66.2021 39.6891C66.3759 40.3831 66.5156 41.0852 66.6206 41.7929L89.5129 38.3971C89.2968 36.9402 89.0093 35.4947 88.6514 34.0659L66.2021 39.6891Z" fill="white"/>
<path d="M23.1429 45C23.1429 44.6419 23.1517 44.2843 23.1692 43.9275L0.0542021 42.792C0.0181103 43.5267 0 44.2629 0 45C-8.84851e-07 50.9095 1.16396 56.7611 3.42542 62.2207C5.68688 67.6804 9.00156 72.6412 13.1802 76.8198C17.3588 80.9984 22.3196 84.3131 27.7792 86.5746C33.2389 88.836 39.0905 90 45 90C50.9095 90 56.7611 88.836 62.2208 86.5746C67.6804 84.3131 72.6412 80.9984 76.8198 76.8198C80.9984 72.6412 84.3131 67.6804 86.5746 62.2207C88.836 56.7611 90 50.9095 90 45C90 44.2629 89.9819 43.5267 89.9458 42.792L66.8308 43.9275C66.8483 44.2844 66.8571 44.642 66.8571 45C66.8571 47.8703 66.2918 50.7125 65.1934 53.3644C64.0949 56.0162 62.485 58.4257 60.4553 60.4553C58.4257 62.485 56.0162 64.0949 53.3644 65.1934C50.7125 66.2918 47.8703 66.8571 45 66.8571C42.1297 66.8571 39.2875 66.2918 36.6356 65.1934C33.9838 64.0949 31.5743 62.485 29.5447 60.4553C27.515 58.4257 25.9051 56.0162 24.8066 53.3644C23.7082 50.7125 23.1429 47.8703 23.1429 45Z" fill="white"/>
<g opacity="0.3">
<path d="M45.0031 23.1418C44.645 23.1418 44.2874 23.1506 43.9306 23.1682L43.4994 14.3901C44.4964 13.9601 45.5185 13.5773 46.5631 13.2447L46.0756 23.1682C45.7187 23.1506 45.3611 23.1418 45.0031 23.1418Z" fill="white"/>
<path d="M49.8412 12.3831L48.2102 23.3784C48.9179 23.4834 49.62 23.623 50.3139 23.7969L53.3068 11.8488C52.1325 11.967 50.9763 12.1462 49.8412 12.3831Z" fill="white"/>
<path d="M56.9246 11.6807L52.3665 24.4195C52.7029 24.5399 53.0367 24.6686 53.3674 24.8056C53.6982 24.9426 54.0253 25.0876 54.3482 25.2404L60.6513 11.9136C59.4282 11.7684 58.1847 11.6896 56.9246 11.6807Z" fill="white"/>
<path d="M64.4312 12.5852L56.2399 26.2515C56.8535 26.6193 57.4487 27.017 58.0234 27.4432L68.1988 13.7232C66.9751 13.2725 65.7176 12.8915 64.4312 12.5852Z" fill="white"/>
<path d="M71.8836 15.3409L59.6814 28.8039C59.9462 29.0438 60.2052 29.2905 60.4584 29.5437C60.7116 29.7968 60.9582 30.0559 61.1982 30.3206L75.4123 17.4376C74.2838 16.6693 73.1056 15.9684 71.8836 15.3409Z" fill="white"/>
<path d="M78.7113 19.9993L62.5589 31.9787C62.9851 32.5533 63.3828 33.1485 63.7506 33.7622L81.7078 22.999C80.7733 21.937 79.7723 20.9349 78.7113 19.9993Z" fill="white"/>
<path d="M84.3316 26.398L64.7617 35.6538C64.9145 35.9768 65.0594 36.3038 65.1964 36.6346C65.3335 36.9654 65.4622 37.2992 65.5826 37.6356L86.517 30.1451C85.8687 28.8454 85.1379 27.5941 84.3316 26.398Z" fill="white"/>
<path d="M88.2062 34.1772L66.2052 39.6881C66.379 40.3821 66.5187 41.0842 66.6237 41.7919L89.3537 38.4202C89.0632 36.9696 88.6785 35.5531 88.2062 34.1772Z" fill="white"/>
<path d="M89.9311 42.7918L66.8339 43.9265C66.8514 44.2833 66.8602 44.6409 66.8602 44.999C66.8602 47.8693 66.2948 50.7115 65.1964 53.3634C64.098 56.0152 62.488 58.4247 60.4584 60.4543C58.4287 62.484 56.0192 64.0939 53.3674 65.1924C50.7156 66.2908 47.8733 66.8561 45.003 66.8561C42.1327 66.8561 39.2905 66.2908 36.6387 65.1924C33.9868 64.0939 31.5773 62.484 29.5477 60.4543C27.5181 58.4247 25.9081 56.0152 24.8097 53.3634C24.3751 52.3143 24.024 51.2355 23.7584 50.1369C26.229 66.0991 40.0295 78.3182 56.6838 78.3182C75.0855 78.3182 90.003 63.4007 90.003 44.999C90.003 44.2574 89.9788 43.5214 89.9311 42.7918Z" fill="white"/>
<path d="M23.7583 39.8615C23.7723 39.8036 23.7865 39.7459 23.801 39.6881L23.7862 39.6844C23.7767 39.7434 23.7674 39.8024 23.7583 39.8615Z" fill="white"/>
<path d="M24.1993 37.5553L24.4236 37.6355C24.544 37.2992 24.6727 36.9654 24.8097 36.6346C24.9467 36.3038 25.0917 35.9768 25.2445 35.6538L24.7606 35.425C24.5508 36.1257 24.3634 36.836 24.1993 37.5553Z" fill="white"/>
<path d="M25.4779 33.296L26.2556 33.7622C26.6234 33.1485 27.0211 32.5533 27.4473 31.9787L26.36 31.1723C26.0424 31.8677 25.7481 32.576 25.4779 33.296Z" fill="white"/>
<path d="M27.4172 29.06L28.808 30.3206C29.0479 30.0559 29.2946 29.7968 29.5477 29.5436C29.8009 29.2905 30.06 29.0438 30.3247 28.8039L28.6605 26.9677C28.2215 27.6485 27.8067 28.3464 27.4172 29.06Z" fill="white"/>
<path d="M30.1018 24.907L31.9828 27.4432C32.5574 27.017 33.1526 26.6193 33.7663 26.2515L31.7534 22.8932C31.1774 23.5423 30.6264 24.2141 30.1018 24.907Z" fill="white"/>
<path d="M33.6269 20.946L35.6579 25.2404C35.9809 25.0876 36.3079 24.9426 36.6387 24.8056C36.9695 24.6686 37.3033 24.5399 37.6396 24.4195L35.7326 19.0898C35.0047 19.6791 34.3022 20.2985 33.6269 20.946Z" fill="white"/>
<path d="M38.0784 17.3542L39.6922 23.7969C40.3862 23.623 41.0883 23.4834 41.796 23.3784L40.668 15.7744C39.7794 16.2624 38.9154 16.7898 38.0784 17.3542Z" fill="white"/>
</g>
</svg>
